<svg xmlns="http://www.w3.org/2000/svg" width="399" height="148" viewBox="0 0 399 148">
    <g fill="none" fill-rule="evenodd">
        <path fill="#451400" d="M90.59 16.769c8.473-5.543 26.307-3.097 27.426 10.371.054.654.01 2.157-.373 2.724-.354.524-5.399.118-8.158.3-.956.062-1.801-.498-1.998-1.308-.402-1.651-1.507-4.233-4.52-4.821-3.326-.65-7.513.868-9.164 4.44-3.328 7.196-2.764 32.571 5.116 33.076 6.304.403 6.285-9.813 6.37-12.787-1.14-.001-3.183.11-4.664.203-.951.06-1.742-.62-1.686-1.443.12-1.79.182-4.545.21-6.297.015-.931.86-1.686 1.934-1.726 3.126-.115 9.237-.356 11.773-.568.742-.063 1.515-.12 2.21.112.357.12.668.312.931.55.452.41.76.957.91 1.514.236.88.144 1.8.071 2.701-.296 3.691-.249 7.405-.753 11.079-.506 3.674-1.603 7.368-3.976 10.445-2.258 2.928-5.678 5.21-9.593 6.167-3.914.96-8.296.54-11.765-1.3-2.837-1.504-4.973-3.874-6.38-6.483-1.46-2.704-2.183-5.665-2.621-8.623-.993-6.69-3.44-30.381 8.7-38.326zm79.683-.464c10.705-.323 15.882 10.291 16.993 15.064 1.328 5.713 1.026 11.677-.004 17.411-1.018 5.671-5.545 21.608-18.385 21.915-19.643.468-23.555-25.824-14.527-43.4 4.357-8.484 13.064-10.903 15.923-10.99zm110.24-1.04c11.787.003 12.057 7.308 13.209 10.141.473 1.163-.373 2.437-1.617 2.442l-6.396.027c-.465.002-3.928-5.959-7.816-2.415-4.369 3.982 8.607 14.324 13.265 20.241.829 1.054 1.595 2.17 2.26 3.342 1.209 2.122 2.09 4.418 2.437 6.834.537 3.749-.423 7.717-2.813 10.634-4.972 6.07-30.208 8.482-30.454-13.723-.01-.872-.154-1.759.076-2.6.576-2.11 4.982-1.758 7.441-1.387.995.15 2.264.709 2.267 1.725.015 5.89 5.776 11.415 10.09 9.566 6.882-2.952-1.079-11.311-3.092-13.045-5.504-4.742-12.501-10.23-13.085-18.363-.262-3.638 2.44-13.422 14.228-13.419zm-60.728.673l6.43.626c.935-.025 1.792.375 2.385 1.079.63.75.814 1.772.604 2.727-.71 3.24-2.18 9.054-3.879 15.768-2.204 8.715-4.702 18.592-5.965 24.602-.39 1.844-.83 3.934-1.508 5.963-.33.99-.754 2.005-1.627 2.737-.917.77-2.058.997-3.05 1.118-.778.094-1.714.143-2.636.143-.71 0-1.413-.029-2.028-.087-.99-.094-2.136-.27-3.15-.874-1.863-1.11-2.637-3.277-3.151-4.711-1.664-4.65-5.21-17.456-8.338-28.752-1.8-6.5-3.501-12.641-4.461-15.826-.248-.82-.195-1.715.236-2.455.526-.902 1.452-1.457 2.483-1.491 2.177-.07 4.397-.043 5.911-.005 1.141.027 2.136.762 2.495 1.84 1.87 5.617 6.833 25.498 9.096 33.581.173.614 1.062.572 1.165-.059 1.355-8.34 5.8-31.894 5.973-33.186.2-1.504 1.45-2.654 2.974-2.736.013 0 .027 0 .04-.002zm-88.118.09c.74-.005 1.323.589 1.301 1.325-.136 4.588-.582 19.876-.74 27.809-.09 4.464.193 9.596.23 14.1.006.71.606 1.276 1.32 1.244 2.588-.112 12.228.097 15.272.137.872.011 1.568.718 1.568 1.584l-.48 6.579c-.073.994-.894 1.769-1.896 1.783-4.982.072-22.08.108-26.46-.093-.874-.04-1.556-.755-1.556-1.627v-8.494c.019-4.602.916-36.204 1.112-43.05.02-.728.62-1.304 1.352-1.295 2.258.027 6.738.008 8.977-.003zm124.892-.759c.8-.009 1.614-.017 2.383.214.769.233 1.499.743 1.817 1.51.039.093.072.188.098.285.15.553-.166 3.741-.286 5.48-.113 1.646-.977 2.356-2.706 2.61-.46.068-.923.078-1.385.063-4.778-.166-9.562-.097-14.333.204-1.575.098-1.119 1.932-1.21 3.106-.038.461-.073 5.724-.087 7.371-.004.413.321.748.719.735 1.489-.045 4.914-.14 6.805-.146 1.268-.004 3.252-.303 4.234.65.751.727.315 5.06.29 7.647-.014 1.227-.963 2.216-2.14 2.23l-9.23.1c-.628.006-1.143.52-1.176 1.172-.119 2.259-.392 7.796-.502 10.431-.025.613.445 1.12 1.033 1.113 3.85-.041 16.723-.8 17.6.198 1.034 1.175.132 8.589-1.073 9.359-1.15.733-17.792.338-24.173.158-1.365-.039-2.441-1.22-2.41-2.643l1.114-49.583c.028-1.254 1.02-2.249 2.224-2.227 2.948.052 8.009.135 9.39.12l13.004-.157zm-83.294 12.672c-2.695-2.035-5.412-.535-7.3 1.76-2.714 3.297-4.395 7.354-5.284 11.524-.61 2.866-1.636 17.018 4.217 18.17 5.541 1.091 9.09-4.273 10.298-7.213.29-.704.546-1.407.778-2.089 1.312-3.858 1.808-8.025 1.486-12.052-.211-2.63-.773-5.278-2.08-7.573-.547-.96-1.231-1.86-2.115-2.527z"/>
        <path fill="#451400" fill-rule="nonzero" d="M126.785 119.733c.503-.5 1.376-.39 1.94.038.563.429.899 1.09 1.236 1.717 1.184 2.197 2.624 4.254 4.282 6.111.742.833 1.577 1.755 1.732 2.825.025.172.031.347.019.526-.055.738-.462 1.394-.87 2.01-1.824 2.747-3.899 5.341-6.23 7.663-.62.618-1.653.45-2.088-.313-.998-1.75-.906-3.927-.999-5.981-4.754.107-9.517-.007-14.272-.023-2.32-.01-18.147.037-20.467.01-2.448-.027-5.284-.463-7.661.21-1.73.492-2.463-2.4-.738-2.889 4.353-1.234 23.317-.352 27.795-.334 4.453.02 12.7.025 15.184.027h.726c.555 0 .826-.447 1.389.017.448.369.4.861.457 1.415.148 1.445.249 2.893.302 4.345 1.21-1.299 2.285-2.69 3.33-4.126.937-1.29 1.302-2.397.264-3.793-.708-.955-2.015-2.885-2.937-4.258-.359-.536-1.181-.332-1.256.31l-.256 2.19c-.077.664-.591 1.19-1.246 1.27-1.281.157-13.502.088-18.06.025-7.815-.11-15.631-.076-23.445.102-.689.016-1.405.027-2.03-.264-.627-.29-1.131-.977-.982-1.659.224-1.015 1.54-1.23 2.566-1.227l40.777.113c.121-1.523.933-3.045 1.054-4.57.043-.53.107-1.113.484-1.487zm-24.242-36.409c1.295.006 2.334 1.071 2.334 2.38v5.011c0 1.271-.939 2.329-2.168 2.474l-.162.013-4.533.221-.195 22.77c-.012 1.663-1.347 3-2.988 3h-3.763c-1.747 0-3.165-1.427-3.17-3.196l-.016-3.67c-.036-6.54-.12-12.65-.27-16.889l-.075-1.887c-.834-.006-1.791-.044-2.805-.106l-1.03-.068c-1.213-.088-2.193-1.027-2.347-2.249l-.11-.923c-.103-.913-.18-1.786-.22-2.548-.034-.685-.035-1.25.007-1.7.03-.317.081-.59.174-.843.182-.499.505-.918 1.06-1.095.123-.053.248-.1.377-.137l.198-.051.228-.045.272-.042c1.319-.184 3.946-.295 7.715-.36l2.74-.037c2.91-.03 5.944-.034 8.747-.023zM115.977 83c12.123.028 16.227 16.027 9.783 28.67-2.403 4.715-7.312 7.408-10.917 7.517-6.165.188-10.522-4.897-11.78-10.351-.792-3.429-.744-7.134-.015-11.23.487-2.726 1.52-5.834 3.075-8.423 2.273-3.785 5.422-6.082 9.484-6.179l.37-.004zm-22.018 3.371l-1.564.018c-3.798.052-6.671.152-8.111.288l-.297.031.005.368.017.426c.03.592.088 1.276.165 1.999l.1.883c1.369.093 2.659.15 3.664.14 1.362-.009 2.491 1.063 2.561 2.443l.035.727c.168 3.775.269 9.606.318 16.068l.032 6.225c0 .1.08.18.184.18h3.763l.2-23.082c.018-1.44 1.143-2.613 2.563-2.672l.916-.04 3.38-.166v-3.86c-2.564-.008-5.298-.002-7.93.024zm21.72-.342l-.275.011c-5.066.307-8.278 5.732-9.416 12.104-.662 3.72-.705 7.021-.016 10.003.972 4.217 4.343 8.151 8.781 8.016 2.586-.079 6.485-2.218 8.353-5.882 2.545-4.994 3.301-11.294 1.994-16.273-1.353-5.154-4.617-8.095-9.422-7.98zm2.41 3.847l.248.044.214.048c2.313.584 3.39 2.985 3.728 6.434.22 2.236.077 5.012-.216 6.396-.622 2.942-1.789 5.572-3.507 7.674-1.801 2.206-4.247 3.007-6.465 1.318-.673-.512-1.216-1.182-1.68-1.999-.845-1.498-1.29-3.233-1.45-5.246-.213-2.68.12-5.428.975-7.96.166-.49.33-.935.503-1.36 1.363-3.342 4.117-5.911 7.65-5.35zm-4.89 6.505c-.148.364-.29.752-.437 1.184-.722 2.136-1.004 4.467-.822 6.738.126 1.605.464 2.922 1.064 3.984.274.484.566.844.881 1.084.697.53 1.466.279 2.37-.828 1.39-1.702 2.36-3.887 2.887-6.378.676-3.198.156-8.73-1.282-9.249l-.097-.027-.188-.03c-1.81-.235-3.488 1.347-4.375 3.522z"/>
        <path fill="#3F1D15" d="M275.083 84.624c12.02 0 15.138 10.818 15.895 15.006.154.851-.51 1.628-1.38 1.627l-5.673-.007c-.888.004-1.725-.706-1.911-1.568-.756-3.513-5.128-9.633-9.02-5.963-4.102 3.87 8.083 15.396 12.745 21.307.83 1.054 1.597 2.17 2.263 3.34 1.21 2.119 2.092 4.413 2.438 6.826.539 3.745-.422 7.708-2.815 10.623-4.977 6.063-29.426 8.473-29.672-13.71-.003-.278.003-.644.014-1.013.024-.872.763-1.555 1.64-1.521l6.263.24c.648.022 1.236.376 1.55.94 1.48 2.66 2.727 10.468 9.935 9.07 3.038-.588.988-8.116-4.834-16.052-4.475-6.1-9.546-10.695-10.63-15.672-1.057-4.86 1.393-13.473 13.192-13.473zm-117.206-.538c.976 0 1.968.037 2.96.12 10.161.843 16.72 7.735 16.716 13.604 0 5.728-3.785 9.415-9.006 11.712 2.468.727 4.886 1.735 7.26 3.16 5.649 3.38 7.28 10.794 4.283 15.904-3.285 5.607-12.285 9.418-19.467 10.328-4.581.578-12.465 1.876-15.004-.427-1.166-1.057-.357-41.87-.198-50.864.022-1.15.96-2.147 2.301-2.425 2.294-.482 6.082-1.112 10.155-1.112zm73.584 3.404c7.37-5.246 22.883-2.93 23.855 9.814.047.62.009 2.041-.324 2.577-.308.496-4.697.112-7.097.283-.831.06-1.566-.469-1.738-1.236-.35-1.563-1.31-4.006-3.932-4.563-2.893-.614-6.535.822-7.97 4.203-2.893 6.809-2.404 30.82 4.45 31.298 5.483.381 5.467-9.285 5.54-12.1-.99 0-2.767.105-4.056.192-.828.057-1.516-.586-1.466-1.364.105-1.694.157-4.302.182-5.96.014-.88.748-1.595 1.683-1.632 2.719-.11 8.033-.338 10.24-.54.645-.057 1.317-.113 1.92.108.312.114.583.295.812.52.393.387.66.904.79 1.433.207.833.127 1.702.064 2.557-.259 3.492-.217 7.006-.656 10.483-.44 3.476-1.394 6.97-3.459 9.883-1.963 2.77-4.938 4.93-8.344 5.835-3.405.908-7.216.511-10.232-1.23-2.469-1.424-4.326-3.665-5.55-6.135-1.27-2.558-1.9-5.36-2.28-8.158-.864-6.332-2.993-28.75 7.568-36.268zm-34.642-2.38c2.235-1.402 11.009-1.819 12.877.813 1.844 2.6 5.389 12.071 7.312 22.7 1.999 11.056 2.356 23.325 3.16 28.345.21 1.31-.81 2.495-2.147 2.495h-5.573c-1.107 0-2.04-.822-2.17-1.914-.496-4.123-1.63-13.68-1.8-16.22-.033-.499-.437-.888-.94-.902-3.666-.106-8.181.032-10.377-.029-.518-.014-.962.367-1.012.88l-1.7 17.304c-.049.499-.472.88-.978.88h-8.523c-.567 0-1.016-.472-.98-1.034.174-2.713 1.222-20.172 4.403-33.955 2.56-11.093 6.212-17.963 8.448-19.364zm-39.398 30.112c-1.018-.038-1.852.639-1.842 1.49.05 3.79.248 9.13.347 11.598.028.798.778 1.442 1.729 1.486.414.017.888.03 1.406.03 4.208 0 11.322-.882 12.182-6.744.978-6.655-9.469-7.708-13.822-7.86zm46.803-19.28c-.744-.96-1.544-1.229-2.294-1.049-.91.219-1.746 1.1-2.315 2.213-1.928 3.762-2.582 7.82-3.149 11.956-.079.575-.079 1.308.447 1.56.194.092.417.091.633.09 2.897-.037 5.795-.072 8.692-.107.436-.005.93-.035 1.214-.364.27-.315.245-.777.199-1.187-.292-2.632-.742-5.246-1.349-7.824-.42-1.789-.93-3.81-2.078-5.289zm-46.341-4.852c-.971-.017-1.774.6-1.815 1.36-.186 3.606-.358 7.212-.488 10.818-.026.68.686 1.205 1.517 1.205.101 0 .203-.006.304-.022 5.066-.802 10.04-4.306 9.37-8.328-.623-3.736-4.67-4.962-8.888-5.033z"/>
        <path fill="#451400" d="M345.13 76.724c2.353-4.715 7.37-13.719 12.077-11.327 5.565 2.826.252 16.35-1.147 20.196-.542 1.491-1.085 2.98-1.63 4.465 1.52-2.051 3.089-4.057 4.934-5.852 2.405-2.338 9.986-7.674 11.406-1.699 1.37 5.77-4.28 13.636-7.113 18.193-2.06 3.314-4.05 7.117-6.356 10.63 3.094-.938 6.255-1.453 8.98-1.317 4.501.226 5.102 4.104 2.706 7.246-7.225 9.474-18.96 13.844-30.503 14.293-1.737 2.833-7.168 11.298-9.207 15.052-.587 1.083-1.837 1.62-3.03 1.308-3.697-.97-10.52-3.111-12.827-4.808-2.64-1.943-11.588-8.167-8.933-12.275.344-.533.816-.962 1.303-1.374l.487-.41c2.07-1.76 9.918-9.776 9.922-10.873.019-7.245-.26-14.484-.266-21.732-.004-3.99-1.75-12.802 2.142-15.674 4.718-3.48 6.818 4.253 7.41 7.248.67 3.383 1.276 6.774 1.906 10.164l.017.08c.242-.83.49-1.652.733-2.46 1.748-5.795 3.194-11.711 5.406-17.344.838-2.135 1.904-4.17 3.05-6.157 1.236-2.146 2.29-4.438 5.025-4.696 3.227-.304 3.962 3.662 3.508 9.123zm-35.253 54.51c-.432.548-.86 1.1-1.285 1.647 1.547 2.706 5.16 5.425 7.318 6.996 2.995 2.18 6.442 3.752 10.133 4.128.454-.664.883-1.345 1.321-2.02-6.548-1.533-13.053-5.705-17.487-10.752zm60.7-5.117c-2.009-1.69.888-4.557 2.881-2.879 3.146 2.647 6.44 5.098 9.725 7.57 2.282 1.716 4.975 4.67 7.574 5.75 2.39.995 1.335 4.933-1.083 3.928-3.31-1.378-6.209-4.406-9.061-6.548-3.393-2.548-6.788-5.087-10.035-7.82zm-14.449-55.099c.408-2.263-2.308-1.615-3.323-.098-1.035 1.545-2.396 4.677-2.846 5.443-1.7 2.89-3.105 6.005-4.453 9.073-1.436 3.267-2.962 6.772-4.262 10.326-1.178 4.29-2.245 7.726-2.596 9.009-.702 2.563-4.408 1.46-3.928-1.082.329-1.747 3.207-11.72 3.977-15.066.73-3.173 2.693-11.073 3.85-14.982.951-3.21-2.443-1.896-3.014.192-.328 1.203-3.896 10.814-4.863 14.195-1.779 6.215-4.934 13.284-4.888 19.819.015 2.243-2.95 2.558-3.827.97-.467-.344-1.918-6.504-2.38-8.94-.449-2.38-.835-4.767-1.307-7.141-.418-2.1-.635-4.325-1.262-6.373-1.473-4.812-1.935 1.511-1.912 3.22.113 8.96 1.737 27.494 1.862 27.859l.061.179c.371 1.076-.16 1.883-.945 2.255-.141.288-.35.514-.597.684-1.751 2.079-3.613 3.934-5.522 5.9-.504.518-.993 1.056-1.472 1.605 3.998 4.821 11.111 9.418 17.178 10.279 1.719-2.825 5.625-10.81 7.05-10.816 4.74-.02 10.65-.44 15.003-2.374 5.074-2.251 15.046-8.757 14.574-11.144-.472-2.387-7.184 1.097-7.987 1.322-2.353.658-4.83 1.502-6.773 3.024-.633.497-1.24 1.071-2.006 1.322-1.697.555-4.378-1.308-2.821-3.074.405-.459.96-.752 1.48-1.076 4.968-3.106 7.188-9.977 10.4-14.62 1.72-2.488 3.15-5.091 4.612-7.74 1.146-2.078 3.908-5.792 3.533-8.3-.186-1.24-.211-.876-1.598-.1-1.556.871-2.866 2.227-4.072 3.532-1.552 1.682-2.975 3.478-4.278 5.36-2.392 3.455-5.214 6.662-7.32 10.334-.29.507-.534.994-.795 1.442-.29.632-.6 1.246-.96 1.809-1.2 1.885-3.936.665-3.832-1.111-.457-1.032 2.65-6.97 3.394-8.776 1.236-3 2.44-5.987 3.506-9.05 1.06-3.045 2.181-6.009 2.98-9.137.339-1.332 2.01-6.103 2.38-8.153zm21.867 41.616c-2.589-.38-1.481-4.302 1.083-3.927 6.153.901 12.416.672 18.47 2.172 2.547.632 1.462 4.557-1.084 3.927-6-1.487-12.35-1.276-18.47-2.172zm16.353-26.364c2.224-1.406 4.267 2.119 2.056 3.517-7.355 4.654-15.756 7.37-23.086 11.945-2.233 1.393-4.277-2.132-2.056-3.517 7.329-4.573 15.732-7.29 23.086-11.945zM21.946 84.104c2.547-1.407 4.824 2.465 2.282 3.869-6.64 3.668-13.144 7.554-19.519 11.657-2.45 1.577-4.713-2.304-2.282-3.87 6.374-4.103 12.88-7.987 19.519-11.656zm-9.834-66.292c4.483-2.768 10.268 5.698 13.024 10.156-2.218-5.634-.54-9.343 2.703-9.32 2.748.019 3.997 2.193 5.418 4.207 1.315 1.866 2.554 3.786 3.575 5.824 2.695 5.377 4.652 11.1 6.9 16.679.312.775.63 1.567.944 2.366l.01-.08c.332-3.405.64-6.81 1.013-10.21.33-3.012 1.752-10.837 6.757-7.803 4.13 2.503 3.157 11.364 3.5 15.306.623 7.167.976 14.345 1.626 21.505.099 1.083 8.618 8.331 10.836 9.891.69.486 1.42.947 1.94 1.61 3.004 3.83-5.373 10.755-7.837 12.903-2.152 1.876-8.766 4.58-12.367 5.858-1.162.412-2.454-.012-3.134-1.032-2.359-3.534-8.51-11.433-10.488-14.083-11.546.55-23.623-2.757-31.65-11.499-2.66-2.899-2.4-6.784 2.067-7.394 2.705-.37 5.901-.135 9.066.526-2.604-3.275-4.918-6.861-7.26-9.96C5.534 49.003-.784 41.717.08 35.895c.896-6.03 8.917-1.408 11.518.696 1.996 1.615 3.735 3.462 5.429 5.36-.674-1.422-1.343-2.846-2.014-4.274-1.73-3.682-8.203-16.59-2.901-19.864zM65.02 78.807c-3.98 5.37-10.101 10.056-16.495 12.136.495.63.982 1.265 1.493 1.882 3.646-.69 6.945-2.541 9.74-4.955 2.015-1.737 5.38-4.736 6.687-7.545-.473-.504-.947-1.011-1.425-1.518zM16.98 22.892c-1.144-1.41-3.908-1.819-3.304.383.546 1.995 2.627 6.568 3.082 7.853 1.068 3.024 2.444 5.856 3.764 8.776 1.33 2.934 2.79 5.784 4.283 8.642.9 1.723 4.512 7.323 4.147 8.382.259 1.748-2.362 3.189-3.724 1.43-.407-.528-.77-1.106-1.113-1.707-.3-.419-.586-.88-.92-1.356-2.417-3.448-5.51-6.375-8.195-9.583-1.463-1.747-3.037-3.4-4.73-4.93-.5-.449-3.473-3.203-4.706-4.067-1.114-.781-2.534.453-1.902 1.651 1.16 2.195 4.265 6.472 4.902 7.412 1.687 2.492 3.34 4.943 5.27 7.253 3.606 4.313 6.417 10.913 11.64 13.554.546.277 1.125.518 1.569.937 1.705 1.612-.806 3.682-2.545 3.281-.785-.181-1.44-.696-2.115-1.134-2.069-1.337-4.612-1.958-7.014-2.405-.82-.152-7.814-3.018-8.077-.618-.263 2.4 10.244 7.97 15.497 9.76 4.508 1.536 10.437 1.44 15.163 1.052 1.42-.117 6.01 7.439 7.968 10.083 5.973-1.375 12.664-6.53 16.23-11.64-.527-.503-1.06-.992-1.608-1.46-2.075-1.78-4.091-3.453-6.017-5.357-.261-.147-.49-.351-.656-.624-.816-.3-1.414-1.05-1.139-2.148l.047-.182c.092-.371.098-18.83-.568-27.698-.128-1.689-1.138-7.901-2.187-3.017-.447 2.08-.47 4.298-.703 6.409-.264 2.388-.442 4.78-.683 7.17-.247 2.448-1.157 8.662-1.593 9.041-.735 1.646-3.72 1.59-3.9-.628-.523-6.463-4.283-13.178-6.597-19.168-1.259-3.26-5.711-12.43-6.083-13.61-1.097-3.482-4.25-3.021-3.021.069 1.494 3.764 4.138 11.403 5.142 14.476 1.058 3.24 4.795 12.85 5.276 14.549.7 2.471-2.899 3.88-3.821 1.409-.464-1.239-1.826-4.542-3.372-8.681-1.606-3.402-3.431-6.734-5.147-9.84-1.61-2.917-3.283-5.875-5.229-8.583-.515-.718-2.145-3.698-3.31-5.136zM9.936 78.594c2.802-.818 3.987 3.507 1.202 4.32-1.734.507-3.448 1.067-5.146 1.683-1.152.418-2.478-.47-2.78-1.564-.343-1.236.433-2.341 1.578-2.756 1.697-.617 3.412-1.177 5.146-1.683zM39.493 2.14c.293-2.844 4.816-2.865 4.521 0-.731 7.102-1.598 14.185-2.585 21.256-.398 2.848-4.753 1.629-4.36-1.191.93-6.674 1.734-13.362 2.424-20.065zm11.658 9.853c.796-2.774 5.156-1.587 4.36 1.192-.676 2.359-1.214 4.743-1.615 7.164-.199 1.201-1.7 1.86-2.781 1.564-1.265-.343-1.776-1.563-1.578-2.755.4-2.42.938-4.805 1.614-7.165z"/>
    </g>
</svg>
