<svg xmlns="http://www.w3.org/2000/svg" width="387" height="160" viewBox="0 0 387 160">
    <g fill="none" fill-rule="evenodd">
        <path fill="#451400" d="M84.492 92.855c.652.361.665.64.104 1.13-2.318 2.027-4.4 4.278-6.702 6.325-.601.533-1.628 1.69-2.123 1.69-.487-.3-.487-1.19-.523-1.69-.174-2.516-.288-5.036-.425-7.553-.043-.781-.134-1.562-.126-2.343.01-1.11.115-1.164 1.112-.813.158.056.321.094.598.175.134-.725.387-1.41.363-2.083-.09-2.463.029-5-.504-7.36-.526-2.316-.916-4.82-2.459-6.753-.887-1.111-1.689-2.43-2.81-3.172-2.29-1.518-4.48-3.416-7.394-3.482-.502-.011-.689-.354-.567-.89.384-1.685.784-3.367 1.127-5.061.175-.877.67-1.135 1.371-.883 1.404.506 2.878.913 4.154 1.68 2.834 1.709 5.502 3.665 7.81 6.199 2.17 2.377 3.282 5.292 4.422 8.25 1.025 2.652 1.504 5.39 1.742 8.251.17 2.027-.017 3.94-.378 5.884-.11.587-.159 1.186-.24 1.81.516.245.995.44 1.448.69zM44.737 72.553c-.415.668-.956 1.26-1.37 1.929-1.422 2.289-2.49 4.773-2.825 7.425-.206 1.63.144 3.37.46 5.018.37 1.947 1.525 5.543 1.525 5.959 0 .416-1.33.708-2.068.967-1.171.41-2.382.705-3.56 1.09-.453.147-.592.021-.803-.397-1.331-2.624-1.689-5.456-2.017-8.333-.25-2.187.155-4.263.363-6.397.227-2.33 1.082-4.38 1.987-6.445.374-.854.918-1.644 1.459-2.411.923-1.31 1.859-2.616 2.875-3.851 1.27-1.544 2.914-2.635 4.673-3.553.37-.194.732-.402 1.08-.595-.551-2.044-.551-2.04 1.594-1.913 2.41.143 4.823.282 7.234.412.99.054 1.986.03 2.97.126.778.075.898.423.34.991-.656.67-1.402 1.248-2.084 1.893-1.662 1.58-3.312 3.176-4.962 4.77-.152.145-.292.31-.411.484-.75 1.093-1.162 1.07-1.741-.106l-.326-.666c-1.65 1.046-3.338 1.906-4.393 3.603zM45.705 108.67c-.48 0-1.31-1.718-1.654-2.567-1.135-2.8-2.353-6.175-2.994-8.426-.197-.694.138-.761.64-.611 1.047.314 2.087.655 3.139.94 2.173.588 4.354 1.144 6.528 1.723.134.035.248.155.436.28l-.667 1.586c5.735 2.618 11.15 2.052 16.519-.524.72-.345 1.713-1.143 2.16-1.143.447 0 .758 1.29 1.139 1.936.646 1.096 1.29 2.198 1.906 3.318.375.682-.048 1.182-.577 1.577-2.359 1.762-4.956 2.891-7.75 3.601-2.283.58-4.564.843-6.886.46-2.184-.361-4.398-.63-6.527-1.236-1.391-.396-2.651-1.32-3.97-2.008-.105-.054-.214-.099-.365-.167-.361.421-.632 1.26-1.077 1.26z" transform="translate(2 3)"/>
        <path fill-rule="nonzero" stroke="#451400" stroke-width="4" d="M59.071 49.067C36.813 50.387 24 66.48 24 85.11s10.405 36.02 35.071 34.832C84.821 118.18 93 99.21 93 82.614c0-16.596-11.67-34.866-33.929-33.547z" transform="translate(2 3)"/>
        <path fill-rule="nonzero" stroke="#451400" stroke-width="4" d="M6.893 31c-1.106 3.984 1.037 49.937 2.019 73.014 1.878 28.215 3.466 42.669 4.763 43.36 10.79 5.809 24.398 8.3 40.824 7.47 24.096-.347 43.252-5.745 45.246-10.326 1.995-4.58 4.43-39.645 4.697-63.668C106.147 49.278 107 31.558 107 27.688" transform="translate(2 3)"/>
        <path fill-rule="nonzero" stroke="#451400" stroke-width="4" d="M.617 30.925c1.646.726 28.785-4.041 57.255-4.041h53.489c1.928 0-.815-11.084-4.115-11.384-11.493-.554-21.9-.05-23.666-1.367C81.815 12.817 80.212 3.5 70.844 1.457 61.476-.587 42.075-1.007 36.643 3.705 31.21 8.416 31.21 15.5 28.45 16.235c-2.759.737-19.61 1.617-23.676 2.517-4.067.9-5.804 11.446-4.158 12.173z" transform="translate(2 3)"/>
        <path fill-rule="nonzero" stroke="#451400" stroke-width="4" d="M39.706 16.306c2.442 1.561 21.878 0 32.228 0 2.27 0 4.356-5.617-3.505-8.29-3.958-1.345-16.519-1.239-21.203-.355-5.732 1.274-9.962 7.084-7.52 8.645z" transform="translate(2 3)"/>
        <g>
            <path fill="#451400" d="M254.546 18.281c-.136.367-.27.723-.403 1.094-.82 2.304-2.378 6.835-4.536 13.107-5.07 14.74-13.559 39.411-21.299 60.779-11.412 31.505-15.265 40.41-16.463 42.36-1.423.402-4.964 1.109-13.193 1.6-4.022.24-7.286.313-7.319.313-.009.002-.018.002-.027.002-.248.007-.453-.028-.616-.077 3.867-10.79 11.444-33.628 19.452-56.65 9.442-27.147 19.205-55.218 23.224-66.22.07-.194.191-.524.31-.814l.083-.018c.728-.14 1.262-.605 1.606-1.212l.226-.087c.014-.005.342-.127 1.275-.183 4.343-.26 12.738 1.316 16.771 2.073.957.18 1.6.3 2.053.375-.211 1.061-.814 2.674-1.144 3.558m4.733-4.586c-.43-1.738-1.61-2.477-3.067-2.663-1.771-.229-13.848-2.877-19.836-2.52-.928.053-1.708.18-2.283.4-.44.168-.88.343-1.306.54-2.737.559-5.93 1.464-8.266 3.274-1.094.846-1.556 1.822-2.056 3.215-.585 1.636-1.516 2.932-2.274 4.455-1.873 3.763-3.397 8.112-4.858 12.143-1.601 4.422-3.29 8.789-4.943 13.181-3.388 9-6.308 18.375-9.163 27.643-.62 2.012-1.195 4.045-1.748 6.087-.026.041-.052.08-.077.125-1.953 3.494-2.502 8.355-3.886 12.225-1.378 3.85-2.646 7.74-3.885 11.656-2.762 8.727-11.46 36.375-11.301 40.198.228 5.483 4.815 5.916 8.41 6.093 5.275.261 10.397-.954 15.532-2.26 2.252-.573 4.672-1.331 6.645-2.871 1.338-1.043 2.07-2.558 2.681-4.204l.018-.006c4.894-2.011 38.959-104.033 43.888-117.838.968-2.673 2.473-6.04 1.775-8.873M246.708 141.849c-1.342 1.342-3.142 2.191-4.815 2.275-.202.01-.404.009-.602-.004-2.08-.127-4.319-1.521-6.14-3.823-2.757-3.482-3.71-7.755-2.488-11.152.943-2.626 4.073-5.562 7.483-5.732.278-.013.555-.008.825.015 3.51.318 7.126 3.133 8.408 6.549.161.425.293.87.396 1.32.838 3.711-.365 7.852-3.067 10.552m-4.954-22.971c-.252-.023-.504-.034-.755-.038-.368-.12-.817-.176-1.355-.126-5.171.472-10.334 3.65-13.045 8.244-2.787 4.723-2.541 11.26.028 15.958 2.694 4.93 7.704 7.45 13.137 7.787 3.863.24 6.993-1.53 8.563-4.505.64-.436 1.241-.925 1.78-1.46 3.86-3.835 5.424-9.575 4.268-14.655-.146-.645-.337-1.28-.572-1.902-1.765-4.672-6.612-8.816-12.049-9.303M213.744 11.223c.856 2.375.704 4.897-.425 7.1-1.04 2.029-3.392 4.03-6.14 5.225-1.268.552-2.619.874-3.905.934-.828.04-1.615-.032-2.337-.21-1.823-.45-3.256-1.57-4.138-2.43-2.62-2.551-3.789-6.264-2.979-9.46.836-3.3 3.822-6.197 7.43-7.21.918-.257 1.833-.41 2.719-.45 1.636-.076 3.19.218 4.617.874 2.385 1.094 4.265 3.145 5.158 5.627m-4.467 16.118c3.147-1.546 5.94-3.958 7.38-6.793 3.533-6.96.055-15.14-6.655-18.25 0 0-9.028-6.086-21.318 1.55-5.449 3.387-5.899 9.561-5.254 15.531.519 4.805 3.128 9.778 8.115 11.567 8.294 2.976 14.55-.83 17.732-3.605" transform="translate(2 3) translate(125 1)"/>
            <g fill-rule="nonzero" stroke="#451400" stroke-width="3.768">
                <path d="M17.896 6.688C15.718 9.667 13.7 34.898 13.7 49.866c0 14.968 1.677 30.794 4.02 33 2.342 2.207 25.436 2.263 32.566 6.092 7.13 3.828 9.12 5.751 10.907 12.956 1.787 7.204-8.522 13.635-17.53 13.635-9.01 0-24.664-2.242-27.007-2.242-2.342 0-7.64 7.604-7.64 10.203 0 2.599 13.085 15.32 29.752 15.32 16.667 0 38.17-5.718 44.25-31.163 6.08-25.445-14.699-41.06-26.43-44.216-11.732-3.155-17.539-4.84-20.052-4.84-2.512 0-1.253-19.571 2.195-20.849 3.448-1.277 11.75-.347 24.568.858 5.565.51 15.537 2.408 17.55.613C84.374 35.04 85.38 5.398 82.055 4.71c-3.326-.688-14.673-.003-31.207-.122-14.362 0-30.775-.878-32.952 2.101z" transform="translate(2 3) translate(125 1) rotate(-2 118.894 -6.643)"/>
                <path fill="#451400" stroke-linejoin="round" d="M78.114 4.236C71.978 1.345 62.336 1.21 44.27.716c-13.277-.365-29.799.37-34.297 2.28-3.037 1.276-6.624 8.152-6.8 13.21-.387 11.06 1.359 28.916 1.948 44.215.89 14.282 4.635 24.683 9.572 27.079 4.937 2.395 17.443 3.99 27.417 7.114 9.973 3.124 12.508 13.344 10.847 18.28 6.33-4.953 12.222-10.959 1.288-21.623-8.726-7.336-26.74-3.771-34.165-8.049-7.426-4.277-6.625-28.86-6.625-44.054 0-8.49 2.933-26.123 3.42-33.3 4.788-2.59 54.879-1.632 61.239-1.632z" transform="translate(2 3) translate(125 1) rotate(-2 118.894 -6.643)"/>
                <path fill="#451400" stroke-linejoin="round" d="M43.662 115.549c-20.347-2-23.457-7.542-30.96-5.346-7.505 2.196-8.912 8.28-11.555 12.975-3.193 5.24 3.383 15.44 14.69 19.227 11.306 3.787 22.265 3.644 32.143 1.123 17.085-4.392 34.57-16.675 36.447-27.068 1.25-6.928 1.25-13.32 0-19.176-.44 22.171-10.207 35.778-29.301 40.821-28.643 7.564-45.058-10.201-46.369-13.45-.804-1.995 2.284-8.729 6.516-11.387 4.887-.159 19.842 2.699 28.39 2.28zM36.136 44.244c8.662-.775 16.423-1.23 23.284-1.366 10.292-.204 17.164-2.514 17.164-2.514-12.121-1.728-21.326-2.69-27.613-2.886-6.822-.867-10.565-.293-11.227 1.722-.994 3.022-1.608 5.044-1.608 5.044z" transform="translate(2 3) translate(125 1) rotate(-2 118.894 -6.643)"/>
            </g>
            <path fill-rule="nonzero" stroke="#451400" stroke-width="3.768" d="M141.195 6.978c-23.2 2.389-41.08 12.998-43.882 59.926 2.36 44.849 17.22 67.087 44.58 66.713 27.574 0 48.088-23.093 46.03-70.143-1.86-36.066-24.562-57.326-46.728-56.496z" transform="translate(2 3) translate(125 1)"/>
            <path fill-rule="nonzero" stroke="#451400" stroke-width="3.768" d="M146.736 34.16c-35.555-5.19-38.257 73.231-5.004 73.231s33.253-68.825 5.004-73.231z" transform="translate(2 3) translate(125 1)"/>
            <path fill="#451400" fill-rule="nonzero" stroke="#451400" stroke-linejoin="round" stroke-width="3.768" d="M141.195 6.974c-21.921.12-35.572 12.95-43.934 25.143-8.361 12.192-12.929 47.788-7.419 67.965 5.51 20.177 21.385 33.806 36.78 38.738 15.394 4.932 28.22.04 36.739-10.86-10.98 5.809-24.046 7.099-39.198 3.87-21.083-8.676-29.698-33.524-25.847-74.547 3.58-31.487 15.936-49.603 42.879-50.309z" transform="translate(2 3) translate(125 1)"/>
            <path fill="#451400" fill-rule="nonzero" stroke="#451400" stroke-linejoin="round" stroke-width="3.768" d="M131.203 38.508c14.796-4.294 26.467 8.643 29.609 19.394 1.688 5.778 2.445 21.517-3.205 33.208-4.862 10.06-14.467 17.074-27.01 12.095 7.437 4.342 14.9 4.326 22.387-.048 18.166-10.611 14.233-41.406 9.164-55.85-6.398-13.338-23.207-15.431-30.945-8.799z" transform="translate(2 3) translate(125 1)"/>
        </g>
    </g>
</svg>
