<svg xmlns="http://www.w3.org/2000/svg" xmlns:xlink="http://www.w3.org/1999/xlink" width="480" height="103" viewBox="0 0 480 103">
    <defs>
        <path id="a" d="M.076.018h139.37V102.54H.076z"/>
    </defs>
    <g fill="none" fill-rule="evenodd">
        <path fill="#FFF" d="M301.588 53.406c.02-3.484-.135-13.693-.347-15.26-.167-1.243-5.406-1.39-5.637-1.118-.402.473-.36.934-.364 1.505-.006.728-.037 1.457-.05 2.187a257.906 257.906 0 0 0-.048 4.375c-.005 2.4-.019 5.714-.027 7.315 0 .281-.367.39-.521.156-1.715-2.604-6.735-11.115-8.701-14.427a2.488 2.488 0 0 0-2.157-1.217l-3.657.023a.859.859 0 0 0-.89.85l-.247 25.897a1.442 1.442 0 0 0 1.442 1.48h3.265c.72 0 1.306-.582 1.314-1.302l.13-13.263c.003-.358.47-.495.665-.194 0 0 8.638 14.319 9.605 14.758.965.44 5.013-.163 5.013-.163a1.079 1.079 0 0 0 1.044-1.064c.019-1.49.057-4.187.085-5.31.013-.462.075-3.948.083-5.228M65.73 51.033a.602.602 0 0 1-.615-.72c.226-1.14.693-3.305 1.207-4.512.519-1.22 1.556-3.761 3.404-3.581 2.102.206 2.508 3.254 2.788 4.691.188.973.329 1.945.437 2.92a.858.858 0 0 1-.825.952c-2.106.068-5.03.191-6.396.25m10.649-8.807c-1.57-3.846-5.051-7.54-9.908-5.332-4.424 2.01-5.073 6.612-6.103 10.684-1.183 4.673-3.077 14.14-3.606 16.858-.075.39.207.76.604.783 1.033.065 2.715.01 3.953-.025a.962.962 0 0 0 .913-.752c.478-2.118 1.833-8.13 1.864-8.319.461-.048 6.272-.226 8.135-.283a.556.556 0 0 1 .574.554c.009 1.557.098 6.192.135 8.06a.775.775 0 0 0 .809.76l3.783.073a.95.95 0 0 0 .905-1.01c-.112-1.714.163-16.605-2.058-22.05M93.526 50.507c-.294 4.55-5.165 7.842-6.98 9.192a.611.611 0 0 1-.975-.498l.652-16.938a.479.479 0 0 1 .701-.406c1.745.915 6.917 3.765 6.602 8.65m3.218-5.854c-1.156-2.389-2.861-4.436-5.2-5.846-1.525-.92-3.23-1.487-4.993-1.716a17.917 17.917 0 0 0-2.711-.125c-.866.018-1.49.172-1.86 1.003-.33.741-.341 1.596-.337 2.392.028 4.954-.135 9.909-.484 14.85-.19 2.679-.435 5.37-.179 8.043.045.474.113.966.37 1.367.33.517.931.81 1.538.897 1.092.155 2.247-.206 3.284-.52a21.366 21.366 0 0 0 2.934-1.132c3.5-1.656 6.215-4.25 7.755-7.87 1.51-3.55 1.576-7.845-.117-11.343M148.6 50.507c-.293 4.55-7.803 10.005-8.499 9.784-.695-.22 1.197-18.028 1.197-18.028a.479.479 0 0 1 .701-.406c1.745.915 6.917 3.765 6.602 8.65m3.218-5.854c-1.156-2.389-2.861-4.436-5.2-5.846-1.525-.92-3.23-1.487-4.993-1.716-.9-.118-1.805-.145-2.711-.125-.866.018-1.49.172-1.86 1.003-.33.741-1.053 11.367-1.27 16.316-.221 5.007-.067 10.036.189 10.438.329.516.932.81 1.538.896 1.093.155 2.698-.307 3.735-.621a21.366 21.366 0 0 0 2.934-1.132c3.499-1.656 6.214-4.25 7.755-7.87 1.51-3.55 1.576-7.845-.117-11.343M112.892 50.455c-.294 4.697-5.164 8.096-6.98 9.49-.405.312-.98.006-.975-.516l.652-17.484c.015-.364.39-.588.701-.42 1.744.945 6.917 3.888 6.602 8.93m3.218-5.552c-1.157-2.389-2.862-4.436-5.2-5.847-1.525-.92-3.23-1.486-4.993-1.716-.9-.117-1.805-.144-2.71-.125-.867.018-1.973.146-2.344.98-.33.74.011 12.324-.339 17.265-.189 2.678-.434 5.37-.177 8.043.045.475.113.966.369 1.368.329.516.93.81 1.538.895 1.093.156 2.247-.205 3.284-.52a21.292 21.292 0 0 0 2.934-1.13c3.499-1.658 6.214-4.251 7.755-7.871 1.51-3.551 1.575-7.844-.117-11.342M134.412 38.322a1.127 1.127 0 0 0-.052-.148c-.17-.393-.562-.656-.974-.776-.413-.12-.849-.115-1.278-.11l-6.97.08c-.741.01-3.454-.035-5.035-.061a1.17 1.17 0 0 0-1.192 1.146l-.597 25.51c-.017.73.56 1.339 1.291 1.359 3.421.092 12.343.295 12.959-.082.647-.395 1.13-4.21.576-4.814-.471-.514-7.371-.124-9.435-.102a.547.547 0 0 1-.554-.573 681.7 681.7 0 0 1 .268-5.366.638.638 0 0 1 .631-.603l4.948-.052a1.16 1.16 0 0 0 1.147-1.147c.014-1.331.248-3.56-.155-3.935-.526-.49-1.59-.336-2.27-.334-1.014.003-2.85.052-3.648.076a.376.376 0 0 1-.385-.379c.007-.847.026-3.555.046-3.792.05-.604-.196-1.547.648-1.598a82.236 82.236 0 0 1 7.685-.106c.248.008.496.004.743-.031.926-.13 1.39-.496 1.45-1.344.064-.894.234-2.534.153-2.818M321.858 38.254a1.158 1.158 0 0 0-.058-.147c-.192-.394-.63-.657-1.094-.776-.462-.12-.951-.116-1.433-.11l-7.82.08c-.83.008-3.873-.035-5.647-.061-.724-.012-1.32.5-1.337 1.144l-.67 25.51c-.018.732.628 1.34 1.45 1.36 3.838.093 13.844.296 14.536-.082.725-.396 1.267-4.21.645-4.815-.528-.512-8.269-.122-10.583-.1-.354.002-.637-.259-.621-.574.066-1.356.23-4.204.301-5.366.02-.336.33-.6.708-.604l5.55-.05c.708-.007 1.279-.516 1.287-1.148.016-1.33.277-3.56-.173-3.934-.592-.49-1.785-.336-2.547-.334-1.138.003-3.198.052-4.093.075-.24.006-.434-.166-.431-.378.007-.848.029-3.556.05-3.793.057-.603-.218-1.547.728-1.599 2.87-.154 5.746-.189 8.62-.104.278.008.557.003.833-.032 1.04-.13 1.56-.497 1.627-1.343.073-.894.263-2.535.172-2.819M373.38 37.845h-.004l-13.609.167a.548.548 0 0 0-.54.525l-1.046 24.84a.773.773 0 0 0 .214.572c.146.155.344.24.557.243 2.035.023 11.617.25 14.506.32a.601.601 0 0 0 .617-.606v-4.114l-8.915.004h-.001c-.331 0-.64-.131-.87-.368a1.204 1.204 0 0 1-.344-.881l.113-4.112a.63.63 0 0 1 .629-.612l5.665-.01c.147 0 .268-.12.27-.265l.056-4.484a.491.491 0 0 0-.148-.361.478.478 0 0 0-.364-.142c-5.28.164-5.406.089-5.612-.035-.788-.473-.752-1.497-.739-1.882l.069-2.028c.011-.342.026-.767.227-1.174.429-.87 1.405-.88 1.988-.886.095 0 .187-.001.272-.006l.37-.02c.51-.025 1.038-.052 1.561-.064 1.388-.03 3.816-.038 5.14-.039a.206.206 0 0 0 .208-.203l.086-4.016a.353.353 0 0 0-.355-.363zm.094 27.925h-.045c-2.887-.07-12.463-.296-14.49-.319a2.02 2.02 0 0 1-1.458-.635 2.025 2.025 0 0 1-.558-1.492l1.044-24.84c.041-.96.824-1.72 1.784-1.732l13.61-.167c.45.005.857.164 1.168.478.31.314.476.73.467 1.172l-.088 4.016a1.473 1.473 0 0 1-1.466 1.436c-1.318 0-3.735.008-5.112.039-.504.011-1.022.038-1.524.063l-.372.02c-.101.004-.21.006-.322.007-.445.004-.792.021-.871.184-.081.162-.09.414-.098.66l-.07 2.027c-.014.428.036.617.08.7.464.021 1.956.008 4.974-.086a1.74 1.74 0 0 1 1.285.503c.346.339.533.793.527 1.277l-.058 4.483a1.536 1.536 0 0 1-1.527 1.51l-5.054.007-.095 3.455 8.915-.004c.67 0 1.215.545 1.215 1.215v4.16c0 .507-.2.98-.562 1.334-.35.343-.81.53-1.299.53zM414.021 37.774h-.004l-13.105.167a.549.549 0 0 0-.541.526l-1.046 24.839a.78.78 0 0 0 .77.815c1.347.015 5.41.12 8.995.212l4.252.108a.606.606 0 0 0 .618-.606v-4.114l-8.16.004c-.331 0-.64-.131-.87-.368a1.205 1.205 0 0 1-.345-.881l.113-4.112a.63.63 0 0 1 .628-.612l5.666-.01c.146 0 .268-.12.27-.266l.057-4.483a.491.491 0 0 0-.149-.361.478.478 0 0 0-.363-.142c-5.282.164-5.406.089-5.613-.035-.787-.472-.752-1.497-.738-1.882l.069-2.028c.01-.342.025-.766.227-1.174.428-.87 1.403-.88 1.988-.886.094 0 .186-.001.271-.006l.372-.018a55.22 55.22 0 0 1 1.559-.066 297.96 297.96 0 0 1 5.14-.039.207.207 0 0 0 .209-.203l.086-4.016a.355.355 0 0 0-.356-.363zM413.36 65.7h-.047l-4.254-.108c-3.58-.092-7.639-.196-8.976-.211a2.02 2.02 0 0 1-1.456-.636 2.023 2.023 0 0 1-.56-1.491l1.046-24.841c.04-.96.824-1.72 1.784-1.732L414 36.514c.448.004.857.165 1.169.478.31.314.476.73.466 1.173l-.086 4.016a1.476 1.476 0 0 1-1.466 1.436c-1.319 0-3.736.007-5.112.038-.505.012-1.023.038-1.524.064l-.373.02c-.102.003-.21.005-.322.006-.444.005-.791.021-.871.184-.08.164-.09.415-.098.659l-.07 2.028c-.014.428.037.617.08.7.463.02 1.955.008 4.974-.085a1.75 1.75 0 0 1 1.286.502c.345.34.532.793.525 1.277l-.056 4.483a1.537 1.537 0 0 1-1.528 1.51l-5.054.008-.095 3.453 8.158-.002h.002c.325 0 .629.126.859.355.23.229.355.535.355.86v4.158a1.855 1.855 0 0 1-1.86 1.865zM186.732 37.346c-.52-.489-3.67-.31-5.08-.201a.735.735 0 0 0-.68.733c-.001 1.765-.008 7.531-.078 9.623a.567.567 0 0 1-.56.55c-1.454.023-4.913-.007-6.701.18a.566.566 0 0 1-.628-.547c-.062-2.128-.181-7.883-.23-9.675a.821.821 0 0 0-.823-.799h-3.193c-.686 0-1.249.544-1.269 1.23-.069 2.392-.224 7.66-.326 10.238-.13 3.347-.085 6.687-.109 10.034-.009 1.19-.004 4.252-.002 5.645 0 .4.315.725.714.742 1.672.065 4.958.181 5.022-.236.244-1.607.337-7.984.363-10.13a.728.728 0 0 1 .718-.72l6.103-.1a.552.552 0 0 1 .563.579c-.058 1.3.199 7.91.284 10.022a.745.745 0 0 0 .682.713c1.513.128 5.123.325 5.17-.677.08-1.731.787-26.517.06-27.204M202.326 55.456c-.617 1.509-2.43 4.262-5.263 3.703-2.992-.59-2.467-7.857-2.156-9.328.455-2.141 1.314-4.224 2.7-5.916.966-1.179 2.355-1.949 3.732-.904.452.343.8.805 1.08 1.298.669 1.178.957 2.538 1.065 3.888a15.582 15.582 0 0 1-.76 6.186c-.12.35-.25.711-.398 1.073m6.17-10.685c-.568-2.45-3.214-7.9-8.686-7.734-1.46.045-5.911 1.287-8.138 5.642-4.614 9.024-2.616 22.522 7.425 22.28 6.563-.157 8.876-8.338 9.397-11.25.525-2.944.68-6.005.002-8.938M264.709 46.418c.618-1.509 2.431-4.262 5.263-3.702 2.993.59 2.468 7.856 2.156 9.327-.454 2.141-1.313 4.224-2.7 5.917-.966 1.178-2.354 1.948-3.732.903-.451-.343-.8-.804-1.08-1.298-.668-1.177-.956-2.538-1.064-3.887-.165-2.067.09-4.206.76-6.187.119-.35.25-.711.397-1.073m-6.17 10.686c.57 2.45 3.215 7.899 8.687 7.733 1.46-.044 5.91-1.287 8.138-5.642 4.613-9.023 2.615-22.52-7.426-22.28-6.562.157-8.876 8.34-9.396 11.25-.526 2.944-.68 6.006-.002 8.939M217.542 48.327c-.362.09-.702-.239-.7-.675.006-1.438.019-4.777.023-6.336.001-.343.237-.621.528-.622 1.728-.004 7.163-.534 7.918 2.381.748 2.887-5.606 4.718-7.769 5.252zm13.103 16.844c.542 0 .984-.43.998-.97.061-2.217.066-7.63-1.2-9.852-1.153-2.022-2.715-3.099-3.514-3.55a.342.342 0 0 1-.024-.58c1.522-1.04 5.903-4.523 3.725-8.876-2.834-5.668-14.295-4.321-17.424-4.131-.83.05-1.532.612-1.546 1.443-.062 3.579-.658 21.859-.788 25.807a.728.728 0 0 0 .73.752h3.84c.568 0 1.034-.448 1.055-1.016.078-2.243.264-7.622.319-10.267a1.275 1.275 0 0 1 .997-1.219c.941-.208 1.889-.339 2.874-.114 1.67.384 2.926 1.459 3.811 2.802 1.478 2.244 1.676 7.099 1.695 8.993.004.43.354.778.786.778h3.666zM425.217 43.058l-.224 3.68a.28.28 0 0 0 .083.219.279.279 0 0 0 .22.082c2.772-.179 5.733-.906 5.728-2.413 0-.33-.115-.595-.36-.836-.732-.72-2.626-1.125-5.07-1.09a.38.38 0 0 0-.377.358m.059 5.242a1.543 1.543 0 0 1-1.54-1.638l.223-3.68a1.65 1.65 0 0 1 1.616-1.542c2.023-.033 4.694.196 5.972 1.451a2.36 2.36 0 0 1 .737 1.732c.008 2.807-4.324 3.506-6.907 3.673a1.28 1.28 0 0 1-.101.004m7.02 15.989c.225.298 1.91.626 5.548.26a.322.322 0 0 0 .292-.347c-.167-2.045-.626-7.06-1.266-9.448-.453-1.692-1.34-3.046-2.634-4.025a.63.63 0 0 1 .117-1.075c.85-.39 3.588-1.904 3.518-5.233-.075-3.613-2.46-5.637-7.289-6.187-1.44-.165-7.59-.266-10.168-.303h-.015c-.612 0-1.122.493-1.14 1.106l-.805 25.388 4.493-.106c.076-2.033.318-8.69.34-10.275a.63.63 0 0 1 .55-.616c1.434-.183 2.79-.127 4.03.162.98.23 2.087.571 2.813 1.738.496.797.715 1.662.927 2.497l.022.091c.316 1.248.41 2.76.499 4.22.047.777.092 1.51.168 2.153m2.648 1.687c-3.266 0-3.814-.83-3.896-1.522a39.29 39.29 0 0 1-.177-2.24c-.086-1.404-.176-2.856-.463-3.99l-.023-.09c-.196-.776-.382-1.51-.774-2.14-.43-.69-1.045-.946-2.03-1.177-.94-.22-1.962-.284-3.046-.196-.064 2.627-.338 10-.352 10.337a.63.63 0 0 1-.614.607l-5.75.135a.633.633 0 0 1-.646-.65L418 38.997a2.412 2.412 0 0 1 2.434-2.326c3.223.046 8.85.147 10.292.311 5.487.625 8.317 3.119 8.405 7.413.068 3.279-2.04 5.111-3.406 5.95 1.12 1.078 1.93 2.472 2.362 4.081.667 2.49 1.135 7.594 1.305 9.674a1.591 1.591 0 0 1-1.42 1.703c-1.207.12-2.203.173-3.027.173M256.53 37.21c-.06-.478-5.198-.203-5.988 0-.664.17-2.935 5.38-3.307 6.072-.187.346-.373.692-.558 1.039-.123.228-.194.492-.343.705-.299.427-.435-.007-.649-.32l-1.49-2.2c-1.019-1.503-2.45-3.765-3.155-4.887a1.533 1.533 0 0 0-1.248-.716c-1.194-.04-3.371-.073-4.29.157a.79.79 0 0 0-.6.754c-.042 2.407-.908 23.322-.62 27.01.026.345 3.515.252 5.036.196a.747.747 0 0 0 .72-.722c.047-1.42.075-13.41.083-17.172 0-.332.433-.46.613-.178.601.938 1.505 2.382 2.063 3.41.24.441.501.905.94 1.151.44.246 3.241.473 3.948.02.526-.338 2.238-3.545 3.073-5.15.12-.234.473-.149.475.114.01 1.142.024 2.897.026 3.398.007 1.266-.046 11.43-.061 14.47a.925.925 0 0 0 .857.926c1.084.082 2.831 0 3.844-.063a.844.844 0 0 0 .796-.848c-.016-4.5-.1-26.645-.165-27.166M338.196 54.036c-.351-.611-.755-1.195-1.194-1.745-2.455-3.09-9.298-8.488-6.995-10.567 2.051-1.85 3.878 1.261 4.123 1.26l3.373-.014a.924.924 0 0 0 .853-1.275c-.607-1.479-.75-5.292-6.967-5.294-6.216-.002-7.642 5.106-7.504 7.006.308 4.245 4 7.111 6.901 9.587 1.062.905 5.26 5.269 1.63 6.81-2.274.966-5.312-1.92-5.321-4.994-.001-.531-.67-.823-1.195-.902-1.297-.192-3.621-.376-3.925.726-.12.439-.044.902-.04 1.357.13 11.593 13.44 10.333 16.062 7.164 1.26-1.522 1.766-3.594 1.483-5.552-.183-1.26-.647-2.46-1.284-3.567M348.33 61.068c-.916-.868-2.395-1.37-3.634-.981-1.568.49-1.975 2.44-1.193 3.765.155.263.36.49.6.668.245.236.55.422.92.534.968.294 2.075.007 2.894-.555 1.252-.859 1.59-2.316.413-3.431M382.675 37.908c-.755 0-2.059.024-4.301.11a.32.32 0 0 0-.252.135.315.315 0 0 0-.046.281c.509 1.69 1.379 4.845 2.387 8.499 1.65 5.984 3.52 12.765 4.384 15.194.279.785.575 1.516 1.127 1.846.321.191.737.253 1.14.292.656.062 1.559.051 2.195-.027.343-.041.722-.11.955-.307.211-.178.344-.483.478-.887.336-1.012.562-2.085.76-3.032.674-3.22 2-8.482 3.168-13.125.873-3.465 1.696-6.737 2.06-8.421a.333.333 0 0 0-.07-.29.316.316 0 0 0-.273-.127l-5.107.098a.417.417 0 0 0-.384.361c-.104.785-.274 2.184-.468 3.804-.416 3.435-.931 7.711-1.258 9.716a1.016 1.016 0 0 1-.989.861c-.499.014-.924-.32-1.03-.81-.74-3.422-2.337-9.986-3.224-13.594-.064-.259-.166-.453-.288-.55a10.81 10.81 0 0 0-.964-.027m5.393 27.657c-.376 0-.748-.015-1.074-.047-.523-.05-1.13-.144-1.666-.464-.986-.59-1.396-1.742-1.668-2.504-.88-2.472-2.756-9.277-4.412-15.282-.964-3.495-1.873-6.795-2.378-8.47a1.568 1.568 0 0 1 .226-1.377 1.573 1.573 0 0 1 1.23-.662c5.412-.205 5.646-.081 5.852.03.473.252.81.735.972 1.395.791 3.222 2.15 8.8 2.962 12.407.314-2.213.724-5.606 1.064-8.43.196-1.623.366-3.026.471-3.819a1.68 1.68 0 0 1 1.574-1.454h.02l5.12-.099c.502-.012.959.205 1.273.585.313.381.432.876.328 1.358-.369 1.705-1.157 4.836-2.07 8.462-1.166 4.632-2.488 9.882-3.156 13.076-.207.98-.44 2.092-.798 3.171-.175.525-.4 1.064-.861 1.453-.487.41-1.09.53-1.615.595-.41.05-.907.076-1.394.076M445.491 59.772c-.558 0-1.052.232-1.372.657-.194.26-.33.616-.402 1.057-.062.378-.05.666.04.883.106.26.352.493.614.73.207.186.41.362.624.475.66.348 1.206.104 1.546-.162.678-.527 1.05-1.503.863-2.269-.193-.794-.89-1.206-1.478-1.326a2.19 2.19 0 0 0-.435-.045m.162 5.236c-.42 0-.84-.106-1.246-.32-.34-.18-.621-.42-.878-.652-.362-.325-.731-.685-.937-1.19-.18-.439-.218-.95-.118-1.563.105-.645.32-1.186.638-1.609.69-.92 1.866-1.337 3.067-1.09 1.234.252 2.172 1.12 2.45 2.261.3 1.238-.252 2.735-1.313 3.56-.513.4-1.085.603-1.663.603M30.804 64.082c-3.023-.694-5.487-3.26-6.84-7.084-.003-3.592-.096-8.173-.185-12.085.54-1.6 1.319-3.008 2.32-4.081 3.878-4.162 7.538-4.76 10.247-4.302-.078.006-.156.008-.233.016-4.441.441-8.481 2.4-10.396 9.985-2.08 8.239 3.074 16.312 11.303 17.273a8.229 8.229 0 0 0 2.32-.057c-2.003.818-4.777 1.199-8.536.335zm-10.723 1.33a.678.678 0 0 1-.51.23h-3.2a.607.607 0 0 1-.54-.328l-5.624-10.908c.013-1.958.019-3.684.004-4.535-.005-.28.365-.379.502-.136l7.466 13.208c.192.323.532.528.908.54.722.028 1.879.195 2.87.17l-1.876 1.76zm-12.951.025c-.175.236-.444.39-.691.418l-3.917.014H2.52a.254.254 0 0 1-.182-.075.256.256 0 0 1-.072-.184l.704-26.093a.8.8 0 0 1 .345-.621l1.487-1.017c-.066 5.113-.362 22.478-.341 25.524.002.261.206.472.467.484.618.028 2.132.004 3.363-.022L7.13 65.437zm8.067-26.181c0-.295.174-.565.444-.687l1.577-.717c-.255 3.379.035 10.328.116 13.086.006.186-.252.237-.32.063-.415-1.083-1.122-2.954-1.826-4.79-.002-1.911 0-4.26.009-6.955zm20.18 3.209c.928.757 3.738 3.406 3.444 7.49-.336 4.688-3.64 5.985-5.396 6.344a5.269 5.269 0 0 1-1.638-1.945c-1.828-3.727-1.086-9.621 2.935-11.602.224-.11.441-.204.655-.287zm5.78 12.811c-1.561 2.02-4.345 2.577-6.583 1.665.2-.062.378-.124.513-.177 1.96-.78 4.358-2.582 4.657-6.742.287-3.983-2.003-6.674-3.298-7.862 6.045-1.173 7.909 8.976 4.71 13.116zm7.322-8.164c-.773-4.813-4.134-8.365-7.823-9.845-2.207-1.392-8.523-4.267-15.235 2.935-.655.702-1.219 1.54-1.695 2.47-.057-2.47-.105-4.466-.11-5.439a.973.973 0 0 0-.836-.958c-1.197-.173-3.897-.019-4.806.176a.816.816 0 0 0-.418.232l-2.298 1.044c-.598.27-.985.87-.987 1.525l-.014 4.558a96.494 96.494 0 0 0-.736-1.838c-.519-1.246-1.094-2.469-1.628-3.705-.422-.98-.95-1.666-2.085-1.845-.695-.11-3.033-.044-4.245 0a.772.772 0 0 0-.26.056.456.456 0 0 0-.194.072l-2.315 1.583a1.732 1.732 0 0 0-.748 1.352l-.705 26.1c-.008.32.112.625.336.855.224.229.524.354.843.354h.005l3.962-.016a1.981 1.981 0 0 0 1.386-.792l1.598-2.157a.758.758 0 0 0 .65-.742c.014-1.269.046-3.996.07-6.693l4.82 9.343c.264.512.784.83 1.36.83h3.2c.459 0 .898-.197 1.172-.51l2.774-2.599a.463.463 0 0 0 .144-.336l.002-.001c.171-.222.257-1.685.287-3.82 1.55 3.024 3.879 5.047 6.647 5.683 1.551.356 2.946.506 4.194.506 3.207 0 5.446-.986 6.884-1.973a10.054 10.054 0 0 0 2.421-2.333c3.464-3.455 5.108-9.553 4.383-14.072zM46.61 70.429c-3.576.534-7.843.19-11.526.166-3.49-.02-6.981-.03-10.473-.037-7.404-.013-14.818-.112-22.221-.013-2.68.036-2.69 2.411 0 2.376 7.937-.107 15.893-.002 23.833.017 6.737.015 14.949.76 21.497-.218 2.594-.388 1.494-2.68-1.11-2.291M2.589 78.542c3.576-.534 7.844-.19 11.527-.166 3.49.02 6.982.03 10.473.037 7.405.013 14.818.112 22.22.013 2.682-.036 2.69-2.411 0-2.376-7.936.107-15.891.002-23.832-.017-6.736-.015-14.948-.76-21.497.218-2.594.388-1.494 2.679 1.109 2.291"/>
        <path fill="#FFF" d="M373.746 65.014c-.753-.019-1.586.294-2.36.357l-.424.035c-.037-.003-.067-.017-.126.016-.737.413-1.645.112-2.182-.54-.452-.55-.792.446-.984.73-.028.01-.052.02-.08.033l-.288-.044a.634.634 0 0 0-.154-.128c-.469-.28-1.234-.223-1.927-.146-.497-.05-.998-.088-1.503-.101-.923-.024-1.846-.055-2.769-.073-.165-.003-.343 0-.527.005a.637.637 0 0 0-.586-.512c-.79-.065-1.577-.151-2.365-.225.025-.593-.092-1.277-.086-1.772.013-1.116.065-2.231.063-3.35-.006-2.227.008-4.455.1-6.681.106-2.567.215-5.142.47-7.699.117-1.174.203-2.345.429-3.503.146-.751.392-1.562.317-2.334a.753.753 0 0 0-.224-.473c.16-.102.333-.188.524-.248.769-.246.44-1.462-.335-1.215-.833.265-1.657.824-2.192 1.238-.379.294-.621.728-.664 1.207-.119 1.316-.755 20.095-.947 25.809a1.755 1.755 0 0 0 1.579 1.805c1.089.11 2.423.24 3.011.287 1.133.088 2.264.119 3.4.147l.234.046a.618.618 0 0 0 .218.045c1.793.072 6.571.037 8.27.023a1.43 1.43 0 0 0 1.028-.45l2.04-2.162s-.533-.117-.96-.127M373.63 42.5c-.304.186-.471.437-.754.64-.323.23-.605.203-.99.24-.783.072-1.582.054-2.37.09-1.457.064-3.322-.326-4.723.194-.317.118-.54.424-.44.775l.045.157c.163.572 2.611.147 3.244.146.939-.001 1.874-.053 2.81-.061.735-.006 1.627.068 2.35-.107.368-.09.956-.48 1.393-.798.437-.319.449-1.002-.013-1.284a.493.493 0 0 0-.552.007"/>
        <path fill="#FFF" d="M370.354 54.186c-.58.723-1.503.508-2.37.549-1.035.048-2.069-.04-3.105-.04-.81-.002-.812 1.258 0 1.259 1.356.002 2.697-.018 4.054-.008 1.992.015 2.685-1.567 2.685-1.567s-.758-.826-1.264-.193M391.244 63.95c-.269-.574-.988-.307-1.125.186a.63.63 0 0 0-.089.128 2.08 2.08 0 0 1-.164.264c-1.228.014-2.383.477-3.648.239a3.78 3.78 0 0 1-1.767-.846.615.615 0 0 0 .072-.285c.013-1.175-.522-2.355-.836-3.476-.368-1.312-.801-2.592-1.228-3.884-.882-2.66-1.471-5.415-2.236-8.11a.58.58 0 0 0-.55-.442 88.946 88.946 0 0 0-.395-1.574.59.59 0 0 0-.21-.331c-.132-.58-.267-1.16-.41-1.738-.399-1.602-1.023-3.24-1.183-4.88a.642.642 0 0 0-.25-.456c.15-.117.295-.21.417-.26.744-.295.42-1.514-.335-1.213-.954.379-1.95 1.347-2.265 2.33-.287.895.092 1.6.364 2.462.32 1.019.611 2.05.902 3.078.161.565.314 1.128.47 1.692.409 1.93.905 3.842 1.471 5.732.282 1.641.748 3.245 1.204 4.876.713 2.542 1.273 5.236 2.27 7.68.286.699.545 1.771 1.197 2.207.642.428 1.777.298 2.504.303 1.4.01 3.106-.241 4.238-1.16.941-.47 2.103-1.41 1.582-2.523M390.004 37.272c-.771.37-1.948.71-2.447 1.47-.55.84-.415 2.265-.473 3.212a75.809 75.809 0 0 0-.161 4.392c-.004 1.035-.163 2.223.088 3.251-.068.511-.107 1.037.04 1.467.162.477.678.582 1.052.277l.209-.168c.36-.294.219-.71-.084-.917a4.19 4.19 0 0 1 .041-.312c.01-.026.02-.052.027-.081.182-.783.26-1.59.3-2.403.199-1.064.333-2.138.5-3.208.17-1.087.34-2.177.488-3.269.09-.654.312-1.513.038-2.156.298-.15.64-.286 1.019-.468.73-.35.092-1.436-.637-1.087M423.571 64.841c-1.032.007-2.09.336-3.14.393-.991.056-1.991.203-2.978.118.016-.488-.077-1.02-.108-1.397a.651.651 0 0 0 .058-.276v-.042c0-.011-.002-.021-.003-.032a23.422 23.422 0 0 0-.042-.788c.193-.049.356-.177.39-.418.069-.487-.019-1.019-.096-1.504a1.952 1.952 0 0 0-.23-.651c.089-.612.164-1.23.24-1.85.136-1.105.247-2.21.359-3.317.102-1.015.332-2.115.223-3.133-.031-.281-.252-.494-.5-.58.1-1.063.205-2.125.311-3.19.174-1.757.214-3.514.46-5.265.172-1.221.598-2.898.327-4.102a1.3 1.3 0 0 0-.272-.546c.252-.044.5-.065.723-.067.81-.01.811-1.27 0-1.26-1.015.012-2.51.326-3.19 1.167-.751.929-.586 2.523-.586 3.61 0 3.418-.49 6.849-.614 10.268-.118 3.301-.311 6.6-.397 9.896-.02.794-.254 1.988-.146 2.943-.385-.276-1.008-.62-1.154-.088a5.55 5.55 0 0 1-.253.729.554.554 0 0 0-.258-.146c-1.769-.438-3.806.008-5.625-.135-1.568-.124-3.14-.346-4.712-.433l-.468-.06c-.71-.088-1.421-.187-2.13-.288-.27-.038-.552-.115-.83-.153-.054-.625-.165-1.257-.17-1.741-.013-1.413.132-2.782.357-4.178.07-.437-.269-.736-.607-.783.061-1.473.107-2.947.125-4.422a.634.634 0 0 0-.03-.204c.007-.223.019-.446.03-.669.1-.858.203-1.716.304-2.573.61-2.457.837-5.16.426-7.648a.52.52 0 0 0-.192-.342c.12-.877.236-1.755.28-2.636l.358-.293c.516.057.743-.366.683-.736.151-.416-.337-.874-.792-.806-.634.097-1.395.628-1.866 1.035-.649.558-.545 1.353-.62 2.148-.255 2.671-.49 5.326-.61 8.01-.192 4.26-.579 8.52-.7 12.784a20.61 20.61 0 0 0-.173 2.89c.004.266.005.665.005 1.081a1.99 1.99 0 0 0 1.873 1.988c2.553.15 5.106.238 7.658.363 1.908.094 7.4.323 8.045-.3.358-.343.78-1.06 1.058-1.57.028.175.11.353.255.515.96 1.085 2.192 1.37 3.548 1.38.857.006 1.713.083 2.57.116.69.026 1.7.26 2.371.126.876-.174 1.052-1.555 1.085-2.309.015-.338-.3-.632-.63-.629"/>
        <path fill="#FFF" d="M414.57 42.572c-.018-.006-.037-.01-.056-.015-.295-.075-.51.102-.59.325a6.33 6.33 0 0 1-.61.613.462.462 0 0 0-.148-.054 17.79 17.79 0 0 0-1.125-.142c-.178-.167-.468-.238-.712-.053-1.16-.066-2.317-.03-3.5.05-.738.05-2.417-.12-2.688.8a.534.534 0 0 0 .057.396c-.622.084-.666.989.001 1.007 1.916.052 3.87-.177 5.786-.265 1.757-.082 2.657-.452 3.807-1.82.233-.278.171-.743-.222-.842M411.128 53.873c-.204.318-.37.785-.693.985-.097.061-.23.098-.38.121.557-.322.22-1.331-.502-1.144-.388.1-.775.195-1.169.265-.22.04-.551.123-.817.12-.22-.149-.516-.166-.75.092l-.046.052c-.02.023-.034.049-.051.074-.47-.14-.963.006-1.412.217-.447.208-.384.692-.1.963-.202.451.18 1.004.73.874 1.46-.35 2.96-.105 4.43-.354 1.075-.181 1.291-.764 1.848-1.63.44-.684-.65-1.316-1.088-.635M438.112 64.552c-.83.596-1.417 1.19-2.49 1.31-1.02.112-2.052.016-3.06-.15a.66.66 0 0 0-.442-.46 1.494 1.494 0 0 0-.496-.056c-.025-.423-.001-.931-.007-1.253-.015-.789-.023-1.58-.097-2.364a11.294 11.294 0 0 0-.867-3.439c-.013-.093-.024-.188-.039-.282-.206-1.226-.552-2.679-1.741-3.301-1.271-.666-3.124-.805-4.542-.807-.623-.001-.766.74-.432 1.086-.154.27-.127.618.24.78.964.427 2.103.778 2.895 1.503.978.896 1.268 2.487 1.479 3.74.224 1.342.162 2.672.046 4.024-.061.716-.47 1.875.197 2.424.633.522 1.941.49 2.722.498 1.333.01 2.672.121 4 .118.799-.002 1.75-.114 2.36-.676.51-.471.81-1.23 1.136-1.833.276-.512-.32-1.251-.862-.862M446.447 64.184c-1.713.553-3.206-.877-3.748-2.414a.637.637 0 0 0-.215-.3c.064-.663.3-1.265.93-1.641.604-.362 1.679-.424 2.326-.12.73.343 1.37-.743.637-1.087-1.124-.527-2.735-.526-3.792.188-1.28.862-1.52 2.534-1.332 3.955.304 2.29 4.383 5.332 5.905 2.345.235-.463-.158-1.104-.711-.926"/>
        <g transform="translate(340.331 .866)">
            <mask id="b" fill="#fff">
                <use xlink:href="#a"/>
            </mask>
            <path fill="#FFF" d="M134.695 78.85c-2.951-3.872-5.766-7.854-8.836-11.633-1.384-1.705-2.838-3.342-4.314-4.968-.635-.701-1.715-1.592-2.205-2.431-1.248-2.129-.425-2.37 1.465-3.101 2.495-.965 5.088-1.919 7.673-2.613 2.604-.698 5.268-.682 7.856-1.363 1.419-.374 1.791-2.527.423-3.231-7.864-4.053-15.249-8.83-23.393-12.381-1.696-.74-4.11-1.246-5.561-2.316-1.076-.793-.848-.05-.718-.953.13-.914 2.658-2.329 3.377-2.858 2.22-1.636 4.803-3.156 6.538-5.352 3.062-3.87.003-5.636-3.846-5.073-8.771 1.28-17.887 4.662-26.872 4.415.945-4.56 4.398-11.03 1.463-14.545-.51-.612-1.494-.623-2.142-.276-4.2 2.242-7.98 5.31-12.176 7.642-1.789.994-3.606 1.948-5.195 3.255-1.061.87-2.014 2.235-3.093 3.289-.034-1.45-.053-3.693-.071-3.988a247.91 247.91 0 0 1-.33-7.385c-.117-3.81.507-8.05-.79-11.688-.456-1.284-1.92-1.704-2.954-.78-3.041 2.713-4.614 8.109-6.954 11.525-3.043 4.44-5.992 8.964-9.205 13.286-3.051-2.797-5.077-7.825-7.452-10.929-2.294-2.998-5.026-7.4-8.46-9.194-.977-.511-2.314-.1-2.596 1.057-.69 2.837-.857 5.804-1.309 8.69-.115.731-.352 4.826-.831 6.964-1.158-1.122-2.22-3.044-2.81-3.841-1.236-1.67-2.406-3.34-3.768-4.911-2.378-2.743-5.348-5.885-8.874-7.1-.533-.183-1.358 0-1.719.456C4.93 9.158 5.764 13.526 5.85 16.704c.133 4.813-.18 10.391.946 15.07.468 1.937 3.51 1.524 3.473-.47l-.011-.612a1.725 1.725 0 0 0-.254-.888c-.626-3.532-.32-7.54-.515-11.057-.088-1.581-.849-6.333-.373-8.688 4.198 2.194 7.436 7.445 10.028 10.946 1.177 1.59 3.111 4.86 5.328 5.12 2.245.265 2.634-1.739 2.922-3.485.687-4.166 1.015-8.545 1.783-12.747.977 1.03 1.846 2.248 2.627 3.189 1.92 2.31 3.745 4.669 5.406 7.172 2.076 3.127 3.838 7.01 7.073 9.092.85.547 1.668.252 2.154-.353.094-.082.182-.175.264-.28 3.549-4.602 6.643-9.518 9.963-14.28a69.825 69.825 0 0 0 3.808-6.16c.241-.434.492-.972.758-1.54.037 1.825-.098 3.678-.053 5.431.069 2.736.196 5.472.355 8.205.122 2.062-.719 8.089 2.54 8.49 1.166.144 2.243-.791 3.046-1.506 2.138-1.905 3.589-3.914 6.152-5.41 4.091-2.39 8.046-5.23 12.143-7.613-.248 1.868-1.524 4.835-1.738 5.79-.476 2.117-1.073 4.355-1.154 6.527-.039 1.018.845 1.684 1.768 1.768 7.842.715 16.464-1.716 24.055-3.387.647-.143 4.187-.454 5.792-.837-1.144.694-3.078 2.054-2.81 1.849-2.462 1.888-5.507 3.46-7.347 6.041-3.89 5.456 5.682 7.227 9.094 8.764 6.082 2.737 11.748 6.168 17.55 9.38-7.45 1.325-19.392 3.869-15.168 10.45 2.98 4.64 7.635 8.546 10.968 12.986 1.625 2.165 3.204 4.36 4.854 6.507.811 1.055 2.968 3.385 4.026 5.33-1.415-.4-3.011-1.204-3.975-1.455-2.494-.652-5.025-1.14-7.558-1.619-4.608-.872-10.31-2.756-14.988-2.554-2.689.116-3.18 1.83-3.897 4.28-1.29 4.412-1.506 9.389-3.01 13.775-1.035-1.475-2.02-3.909-2.465-4.724-1.198-2.191-2.26-4.447-3.385-6.676-1.239-2.452-3.707-8.545-6.581-9.611-2.933-1.09-4.692 2.223-5.784 4.315-1.134 2.17-2.173 4.386-3.197 6.608-.58 1.262-1.975 5.239-3.484 6.775-2.466-3.685-3.025-9.391-4.707-13.329-.957-2.242-2.181-6.726-5.157-7.126-3.058-.41-5.167 3.132-6.468 5.322-1.313 2.21-2.425 4.531-3.727 6.746-.02.032-1.641 2.517-2.07 3.753-.54-2.552-3.02-11.515-3.715-12.698-1.276-2.176-3.859-3.768-6.424-3.718-3.588.068-6.926 3.65-9.563 5.753-2.148 1.713-4.235 3.498-6.377 5.218-1.449 1.163-3.435 3.027-5.389 4.24.346-4.373 2.588-10.768-2.129-12.265-2.148-.682-4.54.307-6.493 1.094-2.414.972-7.566 4.793-10.616 4.783.787-2.775 1.41-5.6 2.294-8.35.698-2.17-2.715-3.1-3.41-.94-1.074 3.34-1.752 6.792-2.824 10.125-.022.065-.042.13-.059.2v.004a2.055 2.055 0 0 0-.053.307l-.01.163c-.09 1.265 1.006 1.835 2.008 1.674.062.03.116.064.184.09 3.985 1.472 8.868-2.636 12.32-4.159 1.441-.637 4.125-2.301 5.464-1.158.934.796.287 2.676.174 3.786-.275 2.697-.754 5.147-.188 7.826.196.92 1.301 1.496 2.175 1.235 2.68-.802 4.93-2.92 7.114-4.619 3.41-2.652 6.669-5.494 10.092-8.13 1.64-1.263 3.982-3.69 6.311-3.156 2.799.64 3.533 4.394 4.157 6.682.828 3.038.68 6.939 2.579 9.538.347.473.881.946 1.528.876 2.046-.223 2.966-1.743 4.056-3.349 2.342-3.45 3.989-7.293 6.25-10.785.41-.628 1.482-2.47 2.535-2.178.332.093.98 1.936 1.112 2.214 1.197 2.51 2.14 5.065 2.973 7.71 1.067 3.386 1.929 7.453 4.35 10.174.429.481 1.125.587 1.721.455 3.317-.737 4.939-5.577 6.201-8.295.937-2.018 1.863-4.038 2.86-6.027.363-.722.865-2.549 1.581-3.007l.562-.785a28.62 28.62 0 0 1 1.611 2.241c2.577 3.856 4.327 8.18 6.544 12.24 1.342 2.457 2.866 6.559 5.795 7.49.684.218 1.678-.132 1.996-.812 1.712-3.667 2.117-7.751 2.967-11.675.303-1.394.562-5.05 1.458-6.065.826-.934 4.864.252 6.395.508 4.416.74 8.847 1.487 13.213 2.484 2.933.67 6.96 2.952 9.965 2.163.775-.204 1.266-.93 1.298-1.705.122-2.952-3.068-6.322-4.748-8.525" mask="url(#b)"/>
        </g>
    </g>
</svg>
